Coordinates
version=1
nRows=8
nColumns=33
inDegrees=yes

Units are S.I. units (second, meters, Newtons, ...)
Angles are in degrees.

endheader
time	ground_thorax_rot_x	ground_thorax_rot_y	ground_thorax_rot_z	ground_thorax_tx	ground_thorax_ty	ground_thorax_tz	clav_prot_r	clav_elev_r	scapula_abduction_r	scapula_elevation_r	scapula_upward_rot_r	scapula_winging_r	shoulder_elv_r	plane_of_elev_r	axial_rot_r	elbow_flexion_r	pro_sup_r	wrist_flex_r	wrist_dev_r	clav_prot_l	clav_elev_l	scapula_abduction_l	scapula_elevation_l	scapula_upward_rot_l	scapula_winging_l	shoulder_elv_l	plane_of_elev_l	axial_rot_l	elbow_flexion_l	pro_sup_l	wrist_flex_l	wrist_dev_l
      6.11000000	     37.86723963	     10.25040741	     11.31199006	   -229.41556828	    845.10170659	      5.80171049	     14.97854477	     37.72140391	     37.74111929	     45.00000000	    -45.00000000	   2790.76284123	  -4067.75120360	    149.08082718	   -112.23712729	   1105.23598115	    161.37497436	     12.27490502	      4.62477628	     10.82379898	    -45.00000000	    -38.14613305	     45.00000000	    -45.00000000	  -1698.55689665	    627.00109645	    138.11455994	   -179.99999979	   1086.91496758	     34.70795742	      7.75992565	    -24.97281883
      6.12000000	     37.79162314	     10.43577885	     11.64060670	   -229.45724239	    843.94366008	      5.60663320	     14.45036390	     37.51840739	     37.39543969	     45.00000000	    -45.00000000	   2790.99452090	  -4067.64808885	    149.13729985	   -111.89008708	   1105.42884431	    161.21484511	     12.48008489	      4.80026714	     10.69843684	    -45.00000000	    -38.15559888	     45.00000000	    -45.00000000	  -1698.46796322	    626.98210418	    138.07367732	   -179.99999979	   1086.86794657	     34.82340568	      7.92344900	    -24.87174952
      6.13000000	     37.76188146	     10.61887806	     11.92152257	   -229.28071365	    842.74574213	      5.41796058	     14.70910971	     37.57037270	     37.35257228	     45.00000000	    -45.00000000	   2790.98496202	  -4067.93858867	    149.23534123	   -111.84891687	   1105.29490394	    161.13591869	     12.45742894	      4.83832451	     10.80996966	    -45.00000000	    -38.02427718	     45.00000000	    -45.00000000	  -1698.62094126	    627.02248998	    138.11216566	   -179.99999979	   1086.76524125	     34.92949523	      7.67449117	    -24.70021255
      6.14000000	     37.74060250	     10.63184304	     12.10624732	   -228.91925798	    841.52949318	      5.23544174	     14.59639889	     37.54552861	     37.33562454	     45.00000000	    -45.00000000	   2791.20585799	  -4067.89659134	    149.23339133	   -111.75518473	   1105.30701218	    161.08739255	     12.54088767	      4.88887342	     10.75865770	    -45.00000000	    -38.09676708	     45.00000000	    -45.00000000	  -1698.59639795	    626.81318786	    138.09064282	   -179.99999979	   1086.88524010	     35.10971941	      7.60607720	    -24.59720013
      6.15000000	     37.79859920	     10.64181026	     12.32515025	   -228.41912215	    840.34238877	      5.06141593	     14.66560334	     37.56687568	     37.28893619	     45.00000000	    -45.00000000	   2791.13416353	  -4068.01801029	    149.17678015	   -111.82957028	   1105.38496236	    161.10341324	     12.53236789	      4.94993175	     10.81969097	    -45.00000000	    -38.02254038	     45.00000000	    -45.00000000	  -1698.67054979	    626.78377214	    138.16374235	   -179.99999979	   1086.88389774	     35.33708357	      7.42401684	    -24.78504751
      6.16000000	     37.81092215	     10.72365982	     12.55440553	   -227.82377396	    839.20211892	      4.89678823	     14.65633227	     37.56162482	     37.24793783	     45.00000000	    -45.00000000	   2791.24317238	  -4068.00845234	    149.18158865	   -111.91237336	   1105.38285928	    161.13793044	     12.58016528	      4.99795758	     10.80986184	    -45.00000000	    -38.01309941	     45.00000000	    -45.00000000	  -1698.68146149	    626.67499958	    138.12484555	   -179.99999979	   1086.98760495	     35.63574230	      7.26586421	    -24.70591872
      6.17000000	     37.81147071	     10.81928304	     12.78436473	   -227.18833822	    838.14567714	      4.74707573	     14.67144728	     37.56535469	     37.23355322	     45.00000000	    -45.00000000	   2791.28125354	  -4068.06658651	    149.18377685	   -112.05959995	   1105.40047584	    161.17671658	     12.61126759	      5.05506897	     10.83557242	    -45.00000000	    -38.00709126	     45.00000000	    -45.00000000	  -1698.77317944	    626.67623109	    138.16607803	   -179.99999979	   1087.04742283	     35.95317142	      7.07913346	    -24.73144040
      6.18000000	     37.76919044	     10.89668715	     13.00331396	   -226.56628400	    837.20065636	      4.61635070	     14.67552478	     37.57257184	     37.22998579	     45.00000000	    -45.00000000	   2791.35198618	  -4068.13552883	    149.17713530	   -112.24308926	   1105.41412494	    161.19489628	     12.64668397	      5.10857002	     10.83799943	    -45.00000000	    -38.02634062	     45.00000000	    -45.00000000	  -1698.81763708	    626.67075093	    138.15070636	   -179.99999979	   1087.10594351	     36.29618493	      6.90514015	    -24.68504883
